<svg width="15" height="16" viewBox="0 0 15 16" fill="none" xmlns="http://www.w3.org/2000/svg">
<path d="M9.2608 7.99408L14.6306 2.63676C14.8658 2.40161 14.9979 2.08267 14.9979 1.75012C14.9979 1.41756 14.8658 1.09863 14.6306 0.863476C14.3955 0.628323 14.0765 0.496216 13.744 0.496216C13.4114 0.496216 13.0925 0.628323 12.8573 0.863476L7.5 6.23329L2.14268 0.863476C1.90752 0.628323 1.58859 0.496216 1.25603 0.496216C0.923478 0.496216 0.604543 0.628323 0.369391 0.863476C0.134239 1.09863 0.00213119 1.41756 0.00213119 1.75012C0.00213119 2.08267 0.134239 2.40161 0.369391 2.63676L5.7392 7.99408L0.369391 13.3514C0.252343 13.4675 0.159441 13.6056 0.0960411 13.7578C0.0326416 13.91 0 14.0732 0 14.238C0 14.4029 0.0326416 14.5661 0.0960411 14.7183C0.159441 14.8705 0.252343 15.0086 0.369391 15.1247C0.485482 15.2417 0.6236 15.3346 0.775777 15.398C0.927954 15.4614 1.09118 15.4941 1.25603 15.4941C1.42089 15.4941 1.58411 15.4614 1.73629 15.398C1.88847 15.3346 2.02659 15.2417 2.14268 15.1247L7.5 9.75488L12.8573 15.1247C12.9734 15.2417 13.1115 15.3346 13.2637 15.398C13.4159 15.4614 13.5791 15.4941 13.744 15.4941C13.9088 15.4941 14.072 15.4614 14.2242 15.398C14.3764 15.3346 14.5145 15.2417 14.6306 15.1247C14.7477 15.0086 14.8406 14.8705 14.904 14.7183C14.9674 14.5661 15 14.4029 15 14.238C15 14.0732 14.9674 13.91 14.904 13.7578C14.8406 13.6056 14.7477 13.4675 14.6306 13.3514L9.2608 7.99408Z" fill="#DB2490"/>
</svg>
