<svg width="45" height="34" viewBox="0 0 45 34" fill="none" xmlns="http://www.w3.org/2000/svg">
<g filter="url(#filter0_d_236_22)">
<path d="M4 0.812988V2.89932H35.6347V23.7626H15.3846V25.849H41V23.7626H38.0161V0.812988H4ZM9.69515 4.56838C8.18681 4.573 6.7417 5.10194 5.67487 6.03991C4.60804 6.97787 4.006 8.24878 4 9.57558C4 12.3283 6.56723 14.5828 9.69515 14.5828C11.2027 14.5775 12.6468 14.0482 13.7126 13.1102C14.7784 12.1723 15.3794 10.9017 15.3846 9.57558C15.3846 6.82538 12.8202 4.56838 9.69515 4.56838ZM18.2308 6.5504V8.32378H25.3462V6.5504H18.2308ZM28.1923 6.5504V8.32378H32.4615V6.5504H28.1923ZM9.66935 6.34118C11.6433 6.34118 13.5484 7.70766 13.5484 9.5332C13.5484 11.3587 12.0565 12.9235 9.69515 12.9235C7.33386 12.9235 5.79032 11.6195 5.79032 9.5332C5.79032 7.44687 7.69541 6.34118 9.66935 6.34118ZM18.2336 11.5054L18.2308 13.1102H32.4615V11.5054H26.379H18.2336ZM4 15.8346V25.849H5.67487V17.7004H11.8326V25.849H13.9615V18.35L16.6029 19.8407C17.4354 20.2288 18.3179 20.2275 19.1489 19.8407L24.1724 17.5036L23.2585 15.9785L17.9542 18.5059L13.7126 16.3371C12.9516 15.9389 12.528 15.8349 11.8326 15.8346H4Z" fill="#3C789E"/>
</g>
<defs>
<filter id="filter0_d_236_22" x="0" y="0.812988" width="45" height="33.0359" filterUnits="userSpaceOnUse" color-interpolation-filters="sRGB">
<feFlood flood-opacity="0" result="BackgroundImageFix"/>
<feColorMatrix in="SourceAlpha" type="matrix" values="0 0 0 0 0 0 0 0 0 0 0 0 0 0 0 0 0 0 127 0" result="hardAlpha"/>
<feOffset dy="4"/>
<feGaussianBlur stdDeviation="2"/>
<feComposite in2="hardAlpha" operator="out"/>
<feColorMatrix type="matrix" values="0 0 0 0 0 0 0 0 0 0 0 0 0 0 0 0 0 0 0.25 0"/>
<feBlend mode="normal" in2="BackgroundImageFix" result="effect1_dropShadow_236_22"/>
<feBlend mode="normal" in="SourceGraphic" in2="effect1_dropShadow_236_22" result="shape"/>
</filter>
</defs>
</svg>
