<svg width="413" height="215" viewBox="0 0 413 215" fill="none" xmlns="http://www.w3.org/2000/svg">
<circle cx="30.5" cy="62.5" r="4.5" fill="#3C789E"/>
<circle cx="4.5" cy="107.5" r="4.5" fill="#3C789E"/>
<circle cx="30.5" cy="152.5" r="4.5" fill="#3C789E"/>
<circle cx="82.5" cy="152.5" r="4.5" fill="#3C789E"/>
<circle cx="56.5" cy="107.5" r="4.5" fill="#3C789E"/>
<circle cx="82.5" cy="62.5" r="4.5" fill="#3C789E"/>
<circle cx="56.5" cy="197.5" r="4.5" fill="#3C789E"/>
<circle cx="107.5" cy="197.5" r="4.5" fill="#3C789E"/>
<circle cx="56.5" cy="17.5" r="4.5" fill="#3C789E"/>
<circle cx="108.5" cy="17.5" r="4.5" fill="#3C789E"/>
<circle cx="30.5" cy="32.5" r="2.5" fill="#3C789E"/>
<circle cx="81.5" cy="32.5" r="2.5" fill="#3C789E"/>
<circle cx="81.5" cy="2.5" r="2.5" fill="#3C789E"/>
<circle cx="134.5" cy="31.5" r="2.5" fill="#3C789E"/>
<circle cx="56.5" cy="77.5" r="2.5" fill="#3C789E"/>
<circle cx="30.5" cy="122.5" r="2.5" fill="#3C789E"/>
<circle cx="4.5" cy="77.5" r="2.5" fill="#3C789E"/>
<circle cx="4.5" cy="137.5" r="2.5" fill="#3C789E"/>
<circle cx="30.5" cy="182.5" r="2.5" fill="#3C789E"/>
<circle cx="132.5" cy="182.5" r="2.5" fill="#3C789E"/>
<circle cx="82.5" cy="212.5" r="2.5" fill="#3C789E"/>
<line x1="30.5" y1="152" x2="30.5" y2="183" stroke="#3C789E"/>
<path d="M81.5 32.5L56.5 17.5L30.5 32.5V62.5L56.5 77.5" stroke="#3C789E"/>
<path d="M30.5 62.5L4.5 77.5V107.5L30.5 122.5" stroke="#3C789E"/>
<path d="M4.5 107.5V137.5L30.5 152.5V182.5L56.5 197.5L82.5 212.5L132.5 182.5" stroke="#3C789E"/>
<path d="M56.5 17.5L81.5 2.5" stroke="#3C789E"/>
<path d="M83.4264 4.12596C83.6685 4.25868 83.9724 4.16997 84.1051 3.92781C84.2379 3.68565 84.1491 3.38176 83.907 3.24904L83.4264 4.12596ZM88.2403 5.62404C87.9982 5.49132 87.6943 5.58003 87.5615 5.82219C87.4288 6.06435 87.5175 6.36824 87.7597 6.50096L88.2403 5.62404ZM92.093 8.87596C92.3352 9.00868 92.6391 8.91997 92.7718 8.67781C92.9045 8.43566 92.8158 8.13176 92.5736 7.99904L92.093 8.87596ZM96.907 10.374C96.6648 10.2413 96.3609 10.33 96.2282 10.5722C96.0955 10.8143 96.1842 11.1182 96.4264 11.251L96.907 10.374ZM100.76 13.626C101.002 13.7587 101.306 13.67 101.438 13.4278C101.571 13.1857 101.482 12.8818 101.24 12.749L100.76 13.626ZM105.574 15.124C105.331 14.9913 105.028 15.08 104.895 15.3222C104.762 15.5643 104.851 15.8682 105.093 16.001L105.574 15.124ZM109.426 18.376C109.669 18.5087 109.972 18.42 110.105 18.1778C110.238 17.9357 110.149 17.6318 109.907 17.499L109.426 18.376ZM114.24 19.874C113.998 19.7413 113.694 19.83 113.562 20.0722C113.429 20.3143 113.518 20.6182 113.76 20.751L114.24 19.874ZM118.093 23.126C118.335 23.2587 118.639 23.17 118.772 22.9278C118.905 22.6857 118.816 22.3818 118.574 22.249L118.093 23.126ZM122.907 24.624C122.665 24.4913 122.361 24.58 122.228 24.8222C122.095 25.0643 122.184 25.3682 122.426 25.501L122.907 24.624ZM126.76 27.876C127.002 28.0087 127.306 27.92 127.438 27.6778C127.571 27.4357 127.482 27.1318 127.24 26.999L126.76 27.876ZM131.574 29.374C131.331 29.2413 131.028 29.33 130.895 29.5722C130.762 29.8143 130.851 30.1182 131.093 30.251L131.574 29.374ZM81.2597 2.93846L83.4264 4.12596L83.907 3.24904L81.7403 2.06154L81.2597 2.93846ZM87.7597 6.50096L92.093 8.87596L92.5736 7.99904L88.2403 5.62404L87.7597 6.50096ZM96.4264 11.251L100.76 13.626L101.24 12.749L96.907 10.374L96.4264 11.251ZM105.093 16.001L109.426 18.376L109.907 17.499L105.574 15.124L105.093 16.001ZM113.76 20.751L118.093 23.126L118.574 22.249L114.24 19.874L113.76 20.751ZM122.426 25.501L126.76 27.876L127.24 26.999L122.907 24.624L122.426 25.501ZM131.093 30.251L133.26 31.4385L133.74 30.5615L131.574 29.374L131.093 30.251Z" fill="#3C789E"/>
<path d="M56.5 197.5V167.5" stroke="#3C789E" stroke-linecap="round" stroke-dasharray="5 5"/>
<path d="M108 197.5V167.5" stroke="#3C789E" stroke-linecap="round" stroke-dasharray="5 5"/>
<path d="M56 47.5L82.5 62.5V92.5L56.5 107.5L30 92.5" stroke="#3C789E" stroke-linecap="round" stroke-dasharray="5 5"/>
<path d="M56.5 107.5V137.5L30.5 152.5" stroke="#3C789E" stroke-linecap="round" stroke-dasharray="5 5"/>
<path d="M56.5 137.5L82.5 152.5V182.5" stroke="#3C789E" stroke-linecap="round" stroke-dasharray="5 5"/>
<path d="M169.438 174.781C162.25 174.781 156.182 174.078 151.234 172.672C146.286 171.214 142.276 169.156 139.203 166.5C136.182 163.844 133.995 160.615 132.641 156.812C131.286 153.01 130.609 148.714 130.609 143.922C130.609 138.401 131.365 133.688 132.875 129.781C134.438 125.823 136.807 122.568 139.984 120.016C143.214 117.464 147.25 115.589 152.094 114.391C156.99 113.193 162.771 112.594 169.438 112.594C176.104 112.594 181.859 113.193 186.703 114.391C191.599 115.589 195.635 117.464 198.812 120.016C202.042 122.568 204.411 125.823 205.922 129.781C207.484 133.688 208.266 138.401 208.266 143.922C208.266 148.714 207.589 153.01 206.234 156.812C204.88 160.615 202.667 163.844 199.594 166.5C196.573 169.156 192.589 171.214 187.641 172.672C182.693 174.078 176.625 174.781 169.438 174.781ZM169.438 170.172C174.177 170.172 178.266 169.833 181.703 169.156C185.141 168.427 188.057 167.438 190.453 166.188C192.901 164.938 194.854 163.479 196.312 161.812C197.823 160.146 198.995 158.349 199.828 156.422C200.714 154.443 201.286 152.411 201.547 150.328C201.859 148.193 202.016 146.057 202.016 143.922C202.016 139.078 201.391 134.964 200.141 131.578C198.891 128.193 196.938 125.432 194.281 123.297C191.625 121.161 188.24 119.625 184.125 118.688C180.01 117.698 175.115 117.203 169.438 117.203C163.708 117.203 158.786 117.698 154.672 118.688C150.609 119.625 147.25 121.161 144.594 123.297C141.938 125.432 139.984 128.193 138.734 131.578C137.484 134.964 136.859 139.078 136.859 143.922C136.859 146.057 136.99 148.193 137.25 150.328C137.562 152.411 138.135 154.443 138.969 156.422C139.854 158.349 141.026 160.146 142.484 161.812C143.995 163.479 145.948 164.938 148.344 166.188C150.792 167.438 153.734 168.427 157.172 169.156C160.609 169.833 164.698 170.172 169.438 170.172ZM262.094 174.781C257.406 174.781 252.953 174.312 248.734 173.375C244.568 172.385 240.896 170.719 237.719 168.375C234.594 166.031 232.094 162.906 230.219 159C228.396 155.094 227.484 150.198 227.484 144.312C227.484 138.479 228.24 133.557 229.75 129.547C231.312 125.484 233.552 122.203 236.469 119.703C239.438 117.203 243.057 115.406 247.328 114.312C251.651 113.167 256.573 112.594 262.094 112.594C267.615 112.594 272.354 112.932 276.312 113.609C280.271 114.234 283.604 115.042 286.312 116.031C289.073 117.021 291.312 118.115 293.031 119.312C294.802 120.458 296.208 121.526 297.25 122.516V92.5156C297.25 91.8385 297.25 91.1615 297.25 90.4844C297.302 89.8073 297.432 89.2083 297.641 88.6875C297.849 88.1667 298.135 87.75 298.5 87.4375C298.917 87.125 299.516 86.9688 300.297 86.9688C301.078 86.9688 301.677 87.125 302.094 87.4375C302.51 87.6979 302.823 88.0625 303.031 88.5312C303.24 89 303.37 89.5729 303.422 90.25C303.474 90.875 303.5 91.5781 303.5 92.3594V169.781C303.5 171.448 303.161 172.568 302.484 173.141C301.859 173.714 301.182 174 300.453 174C299.568 174 298.812 173.74 298.188 173.219C297.562 172.698 297.25 171.604 297.25 169.938V159.078C296.677 161.318 295.661 163.271 294.203 164.938C292.745 166.552 291 167.932 288.969 169.078C286.99 170.224 284.802 171.188 282.406 171.969C280.01 172.698 277.589 173.271 275.141 173.688C272.745 174.104 270.401 174.391 268.109 174.547C265.87 174.703 263.865 174.781 262.094 174.781ZM262.094 170.172C265.219 170.12 268.63 169.885 272.328 169.469C276.026 169 279.568 168.193 282.953 167.047C286.339 165.901 289.333 164.312 291.938 162.281C294.542 160.25 296.312 157.594 297.25 154.312V126.188C296.052 125.25 294.516 124.26 292.641 123.219C290.818 122.177 288.5 121.214 285.688 120.328C282.927 119.391 279.594 118.635 275.688 118.062C271.833 117.49 267.302 117.203 262.094 117.203C257.094 117.203 252.797 117.724 249.203 118.766C245.661 119.807 242.719 121.448 240.375 123.688C238.083 125.875 236.391 128.688 235.297 132.125C234.255 135.51 233.734 139.573 233.734 144.312C233.734 149.26 234.464 153.401 235.922 156.734C237.432 160.016 239.464 162.646 242.016 164.625C244.568 166.604 247.562 168.036 251 168.922C254.49 169.755 258.188 170.172 262.094 170.172ZM362.875 117.203C358.031 117.203 353.734 117.62 349.984 118.453C346.234 119.286 343.031 120.641 340.375 122.516C337.771 124.339 335.74 126.708 334.281 129.625C332.823 132.542 331.99 136.109 331.781 140.328H390.688V136.109C390.688 133.505 390.193 131.057 389.203 128.766C388.266 126.474 386.703 124.469 384.516 122.75C382.328 121.031 379.464 119.677 375.922 118.688C372.38 117.698 368.031 117.203 362.875 117.203ZM358.812 170.172C363.76 170.172 368.083 169.859 371.781 169.234C375.479 168.609 378.656 167.854 381.312 166.969C383.969 166.083 386.13 165.172 387.797 164.234C389.516 163.297 390.844 162.516 391.781 161.891C392.094 161.786 392.302 161.734 392.406 161.734C392.979 161.734 393.5 162.021 393.969 162.594C394.49 163.115 394.75 163.688 394.75 164.312C394.75 164.885 394.49 165.354 393.969 165.719C393.5 166.188 392.484 166.917 390.922 167.906C389.411 168.896 387.224 169.911 384.359 170.953C381.495 171.943 377.953 172.828 373.734 173.609C369.516 174.391 364.516 174.781 358.734 174.781C352.693 174.781 347.562 174.026 343.344 172.516C339.125 171.005 335.688 168.896 333.031 166.188C330.375 163.479 328.448 160.224 327.25 156.422C326.052 152.62 325.453 148.453 325.453 143.922C325.453 137.88 326.417 132.854 328.344 128.844C330.271 124.833 332.901 121.63 336.234 119.234C339.62 116.786 343.578 115.068 348.109 114.078C352.693 113.089 357.615 112.594 362.875 112.594C373.708 112.594 381.807 114.677 387.172 118.844C392.589 122.958 395.297 128.87 395.297 136.578C395.297 137.307 395.245 138.115 395.141 139C395.036 139.885 394.88 140.745 394.672 141.578C394.516 142.359 394.307 143.036 394.047 143.609C393.839 144.13 393.63 144.391 393.422 144.391H370.453L331.703 143.609C331.807 148.453 332.432 152.568 333.578 155.953C334.776 159.286 336.495 162.021 338.734 164.156C341.026 166.24 343.839 167.776 347.172 168.766C350.505 169.703 354.385 170.172 358.812 170.172Z" fill="#3C789E"/>
<path d="M140.441 82.4492C140.441 84.4414 140.061 86.0625 139.299 87.3125C138.537 88.543 137.482 89.5098 136.135 90.2129C134.807 90.8965 133.234 91.3652 131.418 91.6191C129.602 91.873 127.648 92 125.559 92H108.684C108.352 92 108.098 91.9023 107.922 91.707C107.766 91.5117 107.688 91.2676 107.688 90.9746V60.4473C107.688 60.0957 107.795 59.832 108.01 59.6562C108.225 59.4609 108.498 59.3633 108.83 59.3633H122.248C123.654 59.3633 125.041 59.3828 126.408 59.4219C127.775 59.4414 129.064 59.5391 130.275 59.7148C131.506 59.8711 132.629 60.1152 133.645 60.4473C134.68 60.7793 135.568 61.248 136.311 61.8535C137.072 62.459 137.658 63.2207 138.068 64.1387C138.498 65.0566 138.713 66.1797 138.713 67.5078C138.713 68.6406 138.557 69.5977 138.244 70.3789C137.932 71.1602 137.531 71.8145 137.043 72.3418C136.574 72.8691 136.047 73.2891 135.461 73.6016C134.875 73.8945 134.309 74.1191 133.762 74.2754C133.215 74.4121 132.717 74.5 132.268 74.5391C131.818 74.5781 131.486 74.5977 131.271 74.5977H131.066C132.258 74.7148 133.41 74.9199 134.523 75.2129C135.637 75.5059 136.623 75.9551 137.482 76.5605C138.361 77.1465 139.064 77.918 139.592 78.875C140.139 79.832 140.422 81.0234 140.441 82.4492ZM136.223 67.5078C136.223 66.5117 136.057 65.6328 135.725 64.8711C135.393 64.0898 134.758 63.4355 133.82 62.9082C132.883 62.3809 131.574 61.9805 129.895 61.707C128.215 61.4336 126.027 61.2969 123.332 61.2969H110.178V73.8652H124.035C126.145 73.8652 127.961 73.7871 129.484 73.6309C131.027 73.4551 132.297 73.1328 133.293 72.6641C134.289 72.1953 135.021 71.5508 135.49 70.7305C135.979 69.9102 136.223 68.8359 136.223 67.5078ZM137.951 82.4492C137.951 81.1016 137.619 79.9785 136.955 79.0801C136.311 78.1816 135.383 77.4688 134.172 76.9414C132.98 76.4141 131.525 76.043 129.807 75.8281C128.088 75.5938 126.164 75.4766 124.035 75.4766H110.178V90.0664H126.672C129.309 90.0664 131.379 89.8516 132.883 89.4219C134.406 88.9922 135.539 88.4258 136.281 87.7227C137.023 87.0195 137.482 86.209 137.658 85.291C137.854 84.373 137.951 83.4258 137.951 82.4492ZM166.164 69.6758C166.379 69.7344 166.535 69.8516 166.633 70.0273C166.73 70.1836 166.779 70.3594 166.779 70.5547C166.779 70.8086 166.691 71.043 166.516 71.2578C166.359 71.4727 166.115 71.5801 165.783 71.5801C165.686 71.5801 165.627 71.5801 165.607 71.5801C165.588 71.5605 165.529 71.541 165.432 71.5215C164.67 71.3066 163.938 71.1406 163.234 71.0234C162.551 70.9062 161.799 70.8477 160.979 70.8477C159.826 70.8477 158.723 70.9648 157.668 71.1992C156.633 71.4141 155.686 71.7559 154.826 72.2246C153.986 72.6738 153.254 73.2598 152.629 73.9824C152.004 74.6855 151.535 75.5156 151.223 76.4727V89.9492C151.223 90.457 151.154 90.9258 151.018 91.3555C150.881 91.7852 150.568 92 150.08 92C149.807 92 149.582 91.9414 149.406 91.8242C149.25 91.707 149.133 91.5508 149.055 91.3555C148.977 91.1602 148.928 90.9453 148.908 90.7109C148.889 90.457 148.879 90.2031 148.879 89.9492V71.1992C148.879 70.75 148.957 70.3691 149.113 70.0566C149.27 69.7246 149.631 69.5586 150.197 69.5586C150.627 69.5586 150.9 69.7148 151.018 70.0273C151.154 70.3398 151.223 70.7305 151.223 71.1992V74.5977C151.535 73.4062 152.072 72.4395 152.834 71.6973C153.615 70.9551 154.475 70.3887 155.412 69.998C156.369 69.5879 157.346 69.3145 158.342 69.1777C159.338 69.041 160.217 68.9727 160.979 68.9727C161.721 68.9727 162.355 69.002 162.883 69.0605C163.43 69.0996 163.898 69.1582 164.289 69.2363C164.68 69.2949 165.021 69.3633 165.314 69.4414C165.607 69.5195 165.891 69.5977 166.164 69.6758ZM173.898 85.4375C173.898 86.375 174.133 87.166 174.602 87.8105C175.09 88.4551 175.764 88.9824 176.623 89.3926C177.482 89.8027 178.498 90.1055 179.67 90.3008C180.861 90.4766 182.16 90.5645 183.566 90.5645C185.285 90.5645 186.809 90.4473 188.137 90.2129C189.465 89.959 190.627 89.6465 191.623 89.2754C192.619 88.9043 193.459 88.5039 194.143 88.0742C194.826 87.625 195.393 87.1953 195.842 86.7852V80.8965C193.889 80.623 191.867 80.3691 189.777 80.1348C187.688 79.8809 185.578 79.7539 183.449 79.7539C181.945 79.7539 180.598 79.8418 179.406 80.0176C178.234 80.1934 177.238 80.4961 176.418 80.9258C175.598 81.3555 174.973 81.9414 174.543 82.6836C174.113 83.4062 173.898 84.3242 173.898 85.4375ZM186.35 70.7012C184.475 70.7012 182.873 70.75 181.545 70.8477C180.217 70.9453 179.074 71.0723 178.117 71.2285C177.18 71.3848 176.389 71.5508 175.744 71.7266C175.1 71.9023 174.533 72.0781 174.045 72.2539C173.811 72.2539 173.596 72.1367 173.4 71.9023C173.205 71.668 173.107 71.4141 173.107 71.1406C173.107 70.8867 173.225 70.7012 173.459 70.584C173.615 70.5059 173.977 70.3789 174.543 70.2031C175.129 70.0273 175.939 69.8516 176.975 69.6758C178.029 69.4805 179.328 69.3145 180.871 69.1777C182.434 69.041 184.27 68.9727 186.379 68.9727C187.375 68.9727 188.361 69.041 189.338 69.1777C190.314 69.2949 191.232 69.5195 192.092 69.8516C192.971 70.1836 193.781 70.6426 194.523 71.2285C195.285 71.8145 195.93 72.5762 196.457 73.5137C197.004 74.4316 197.434 75.5547 197.746 76.8828C198.059 78.1914 198.215 79.7344 198.215 81.5117V89.9492C198.215 90.1836 198.205 90.418 198.186 90.6523C198.166 90.8867 198.107 91.1113 198.01 91.3262C197.932 91.5215 197.814 91.6875 197.658 91.8242C197.502 91.9414 197.287 92 197.014 92C196.564 92 196.252 91.7949 196.076 91.3848C195.92 90.9746 195.842 90.457 195.842 89.832V87.8105C195.451 88.2988 194.943 88.8066 194.318 89.334C193.693 89.8613 192.902 90.3496 191.945 90.7988C190.988 91.2285 189.846 91.5898 188.518 91.8828C187.189 92.1562 185.617 92.293 183.801 92.293C182.102 92.293 180.5 92.166 178.996 91.9121C177.512 91.6582 176.213 91.2578 175.1 90.7109C174.006 90.1641 173.137 89.4609 172.492 88.6016C171.867 87.7227 171.555 86.668 171.555 85.4375C171.555 84.0117 171.848 82.8301 172.434 81.8926C173.039 80.9355 173.869 80.1738 174.924 79.6074C175.979 79.0215 177.209 78.6113 178.615 78.377C180.041 78.1426 181.574 78.0254 183.215 78.0254C184.445 78.0254 185.676 78.0742 186.906 78.1719C188.156 78.25 189.338 78.377 190.451 78.5527C191.564 78.709 192.58 78.9141 193.498 79.168C194.436 79.4023 195.217 79.6855 195.842 80.0176C195.842 78.0254 195.578 76.4238 195.051 75.2129C194.523 74.002 193.82 73.0645 192.941 72.4004C192.062 71.7168 191.047 71.2676 189.895 71.0527C188.762 70.8184 187.58 70.7012 186.35 70.7012ZM209.934 90.1543C209.934 90.4082 209.924 90.6523 209.904 90.8867C209.885 91.1016 209.836 91.2969 209.758 91.4727C209.699 91.6289 209.592 91.7559 209.436 91.8535C209.279 91.9512 209.055 92 208.762 92C208.215 92 207.883 91.834 207.766 91.502C207.648 91.1699 207.59 90.7207 207.59 90.1543V71.3457C207.59 70.8574 207.658 70.4375 207.795 70.0859C207.932 69.7344 208.273 69.5586 208.82 69.5586C209.309 69.5586 209.611 69.7344 209.729 70.0859C209.865 70.4375 209.934 70.8379 209.934 71.2871V90.1543ZM207.209 62.9375C207.209 62.4883 207.355 62.1172 207.648 61.8242C207.941 61.5117 208.312 61.3555 208.762 61.3555C209.211 61.3555 209.592 61.5117 209.904 61.8242C210.217 62.1172 210.373 62.4883 210.373 62.9375C210.373 63.3867 210.217 63.748 209.904 64.0215C209.592 64.2949 209.211 64.4316 208.762 64.4316C208.312 64.4316 207.941 64.2949 207.648 64.0215C207.355 63.748 207.209 63.3867 207.209 62.9375ZM245.646 89.8906C245.646 90.1445 245.627 90.3984 245.588 90.6523C245.549 90.9062 245.48 91.1309 245.383 91.3262C245.305 91.5215 245.188 91.6875 245.031 91.8242C244.875 91.9414 244.68 92 244.445 92C244.152 92 243.928 91.9414 243.771 91.8242C243.635 91.6875 243.527 91.5215 243.449 91.3262C243.371 91.1309 243.322 90.9062 243.303 90.6523C243.303 90.3984 243.303 90.1445 243.303 89.8906V79.7539C243.303 78.2305 243.186 76.9023 242.951 75.7695C242.736 74.6367 242.297 73.6992 241.633 72.957C240.988 72.1953 240.08 71.6289 238.908 71.2578C237.756 70.8867 236.242 70.7012 234.367 70.7012C233.215 70.7012 231.994 70.7988 230.705 70.9941C229.416 71.1699 228.186 71.4922 227.014 71.9609C225.842 72.4102 224.807 73.0156 223.908 73.7773C223.01 74.5391 222.385 75.4961 222.033 76.6484V89.8906C222.033 90.1445 222.023 90.3984 222.004 90.6523C221.984 90.9062 221.936 91.1309 221.857 91.3262C221.779 91.5215 221.662 91.6875 221.506 91.8242C221.369 91.9414 221.184 92 220.949 92C220.676 92 220.451 91.9414 220.275 91.8242C220.119 91.6875 219.992 91.5215 219.895 91.3262C219.816 91.1309 219.758 90.9062 219.719 90.6523C219.699 90.3984 219.689 90.1445 219.689 89.8906V70.9062C219.689 70.5742 219.758 70.2715 219.895 69.998C220.031 69.7051 220.373 69.5586 220.92 69.5586C221.408 69.5586 221.711 69.6953 221.828 69.9688C221.965 70.2227 222.033 70.5352 222.033 70.9062V74.5977C222.58 73.3477 223.342 72.3516 224.318 71.6094C225.295 70.8477 226.359 70.2812 227.512 69.9102C228.684 69.5195 229.865 69.2656 231.057 69.1484C232.268 69.0312 233.371 68.9727 234.367 68.9727C236.477 68.9727 238.244 69.1582 239.67 69.5293C241.115 69.8809 242.277 70.4766 243.156 71.3164C244.055 72.1562 244.689 73.2695 245.061 74.6562C245.451 76.0234 245.646 77.7227 245.646 79.7539V89.8906Z" fill="#3C789E"/>
</svg>
