<svg width="24" height="22" viewBox="0 0 24 22" fill="none" xmlns="http://www.w3.org/2000/svg">
<path d="M7.25 5.33337C7.05109 5.33337 6.86032 5.40361 6.71967 5.52864C6.57902 5.65366 6.5 5.82323 6.5 6.00004V12.6667C6.5 12.8435 6.57902 13.0131 6.71967 13.1381C6.86032 13.2631 7.05109 13.3334 7.25 13.3334C7.44891 13.3334 7.63968 13.2631 7.78033 13.1381C7.92098 13.0131 8 12.8435 8 12.6667V6.00004C8 5.82323 7.92098 5.65366 7.78033 5.52864C7.63968 5.40361 7.44891 5.33337 7.25 5.33337ZM12 5.33337C11.8011 5.33337 11.6103 5.40361 11.4697 5.52864C11.329 5.65366 11.25 5.82323 11.25 6.00004V10C11.25 10.1769 11.329 10.3464 11.4697 10.4714C11.6103 10.5965 11.8011 10.6667 12 10.6667C12.1989 10.6667 12.3897 10.5965 12.5303 10.4714C12.671 10.3464 12.75 10.1769 12.75 10V6.00004C12.75 5.82323 12.671 5.65366 12.5303 5.52864C12.3897 5.40361 12.1989 5.33337 12 5.33337ZM16 6.00004C16 5.82323 16.079 5.65366 16.2197 5.52864C16.3603 5.40361 16.5511 5.33337 16.75 5.33337C16.9489 5.33337 17.1397 5.40361 17.2803 5.52864C17.421 5.65366 17.5 5.82323 17.5 6.00004V14.4445C17.5 14.6213 17.421 14.7909 17.2803 14.9159C17.1397 15.0409 16.9489 15.1112 16.75 15.1112C16.5511 15.1112 16.3603 15.0409 16.2197 14.9159C16.079 14.7909 16 14.6213 16 14.4445V6.00004Z" fill="#174C6F"/>
<path fill-rule="evenodd" clip-rule="evenodd" d="M3.75 1.77783C3.28587 1.77783 2.84075 1.94172 2.51256 2.23344C2.18437 2.52517 2 2.92083 2 3.33339V18.0001C2 18.8587 2.784 19.5556 3.75 19.5556H20.25C20.7141 19.5556 21.1592 19.3917 21.4874 19.1C21.8156 18.8083 22 18.4126 22 18.0001V3.33339C22 2.92083 21.8156 2.52517 21.4874 2.23344C21.1592 1.94172 20.7141 1.77783 20.25 1.77783H3.75ZM3.5 3.33339C3.5 3.27445 3.52634 3.21793 3.57322 3.17625C3.62011 3.13458 3.6837 3.11117 3.75 3.11117H20.25C20.3163 3.11117 20.3799 3.13458 20.4268 3.17625C20.4737 3.21793 20.5 3.27445 20.5 3.33339V18.0001C20.5 18.059 20.4737 18.1155 20.4268 18.1572C20.3799 18.1989 20.3163 18.2223 20.25 18.2223H3.75C3.6837 18.2223 3.62011 18.1989 3.57322 18.1572C3.52634 18.1155 3.5 18.059 3.5 18.0001V3.33339Z" fill="#174C6F"/>
</svg>
