<svg width="70" height="56" viewBox="0 0 70 56" fill="none" xmlns="http://www.w3.org/2000/svg">
<g filter="url(#filter0_d_236_18)">
<path d="M4 0V4H57.0095V44H23.0769V48H66V44H61V0H4ZM13.5432 7.2C11.0157 7.20885 8.59421 8.22296 6.80654 10.0213C5.01888 11.8196 4.01005 14.2562 4 16.8C4 22.0776 8.30185 26.4 13.5432 26.4C16.0695 26.3899 18.4893 25.3751 20.2751 23.5768C22.061 21.7785 23.0681 19.3425 23.0769 16.8C23.0769 11.5272 18.7798 7.2 13.5432 7.2ZM27.8462 11V14.4H39.7692V11H27.8462ZM44.5385 11V14.4H51.6923V11H44.5385ZM13.5 10.5989C16.8077 10.5989 20 13.2188 20 16.7188C20 20.2188 17.5 23.2188 13.5432 23.2188C9.58646 23.2188 7 20.7188 7 16.7188C7 12.7188 10.1923 10.5989 13.5 10.5989ZM27.8509 20.5L27.8462 23.5768H51.6923V20.5H41.5H27.8509ZM4 28.8V48H6.80654V32.3773H17.1249V48H20.6923V33.6227L25.1183 36.4808C26.5133 37.2248 27.9921 37.2224 29.3847 36.4808L37.8024 32L36.271 29.076L27.3828 33.9216L20.2751 29.7636C19 29 18.2902 28.8007 17.1249 28.8H4Z" fill="#3C789E"/>
</g>
<defs>
<filter id="filter0_d_236_18" x="0" y="0" width="70" height="56" filterUnits="userSpaceOnUse" color-interpolation-filters="sRGB">
<feFlood flood-opacity="0" result="BackgroundImageFix"/>
<feColorMatrix in="SourceAlpha" type="matrix" values="0 0 0 0 0 0 0 0 0 0 0 0 0 0 0 0 0 0 127 0" result="hardAlpha"/>
<feOffset dy="4"/>
<feGaussianBlur stdDeviation="2"/>
<feComposite in2="hardAlpha" operator="out"/>
<feColorMatrix type="matrix" values="0 0 0 0 0 0 0 0 0 0 0 0 0 0 0 0 0 0 0.25 0"/>
<feBlend mode="normal" in2="BackgroundImageFix" result="effect1_dropShadow_236_18"/>
<feBlend mode="normal" in="SourceGraphic" in2="effect1_dropShadow_236_18" result="shape"/>
</filter>
</defs>
</svg>
